<svg width="84" height="56" viewBox="0 0 84 56" fill="none" xmlns="http://www.w3.org/2000/svg">
<path d="M7.164 45.288C7.164 45.776 7.052 46.224 6.828 46.632C6.604 47.032 6.26 47.356 5.796 47.604C5.332 47.852 4.756 47.976 4.068 47.976H2.796V51H0.744V42.576H4.068C4.74 42.576 5.308 42.692 5.772 42.924C6.236 43.156 6.584 43.476 6.816 43.884C7.048 44.292 7.164 44.76 7.164 45.288ZM3.912 46.344C4.304 46.344 4.596 46.252 4.788 46.068C4.98 45.884 5.076 45.624 5.076 45.288C5.076 44.952 4.98 44.692 4.788 44.508C4.596 44.324 4.304 44.232 3.912 44.232H2.796V46.344H3.912ZM7.82428 47.64C7.82428 46.952 7.95228 46.348 8.20828 45.828C8.47228 45.308 8.82828 44.908 9.27628 44.628C9.72428 44.348 10.2243 44.208 10.7763 44.208C11.2483 44.208 11.6603 44.304 12.0123 44.496C12.3723 44.688 12.6483 44.94 12.8403 45.252V44.304H14.8923V51H12.8403V50.052C12.6403 50.364 12.3603 50.616 12.0003 50.808C11.6483 51 11.2363 51.096 10.7643 51.096C10.2203 51.096 9.72428 50.956 9.27628 50.676C8.82828 50.388 8.47228 49.984 8.20828 49.464C7.95228 48.936 7.82428 48.328 7.82428 47.64ZM12.8403 47.652C12.8403 47.14 12.6963 46.736 12.4083 46.44C12.1283 46.144 11.7843 45.996 11.3763 45.996C10.9683 45.996 10.6203 46.144 10.3323 46.44C10.0523 46.728 9.91228 47.128 9.91228 47.64C9.91228 48.152 10.0523 48.56 10.3323 48.864C10.6203 49.16 10.9683 49.308 11.3763 49.308C11.7843 49.308 12.1283 49.16 12.4083 48.864C12.6963 48.568 12.8403 48.164 12.8403 47.652ZM19.1008 51.096C18.5168 51.096 17.9968 50.996 17.5408 50.796C17.0848 50.596 16.7248 50.324 16.4608 49.98C16.1968 49.628 16.0488 49.236 16.0168 48.804H18.0448C18.0688 49.036 18.1768 49.224 18.3688 49.368C18.5608 49.512 18.7968 49.584 19.0768 49.584C19.3328 49.584 19.5288 49.536 19.6648 49.44C19.8088 49.336 19.8808 49.204 19.8808 49.044C19.8808 48.852 19.7808 48.712 19.5808 48.624C19.3808 48.528 19.0568 48.424 18.6088 48.312C18.1288 48.2 17.7288 48.084 17.4088 47.964C17.0888 47.836 16.8128 47.64 16.5808 47.376C16.3488 47.104 16.2328 46.74 16.2328 46.284C16.2328 45.9 16.3368 45.552 16.5448 45.24C16.7608 44.92 17.0728 44.668 17.4808 44.484C17.8968 44.3 18.3888 44.208 18.9568 44.208C19.7968 44.208 20.4568 44.416 20.9368 44.832C21.4248 45.248 21.7048 45.8 21.7768 46.488H19.8808C19.8488 46.256 19.7448 46.072 19.5688 45.936C19.4008 45.8 19.1768 45.732 18.8968 45.732C18.6568 45.732 18.4728 45.78 18.3448 45.876C18.2168 45.964 18.1528 46.088 18.1528 46.248C18.1528 46.44 18.2528 46.584 18.4528 46.68C18.6608 46.776 18.9808 46.872 19.4128 46.968C19.9088 47.096 20.3128 47.224 20.6248 47.352C20.9368 47.472 21.2088 47.672 21.4408 47.952C21.6808 48.224 21.8048 48.592 21.8128 49.056C21.8128 49.448 21.7008 49.8 21.4768 50.112C21.2608 50.416 20.9448 50.656 20.5288 50.832C20.1208 51.008 19.6448 51.096 19.1008 51.096ZM25.7922 51.096C25.2082 51.096 24.6882 50.996 24.2322 50.796C23.7762 50.596 23.4162 50.324 23.1522 49.98C22.8882 49.628 22.7402 49.236 22.7082 48.804H24.7362C24.7602 49.036 24.8682 49.224 25.0602 49.368C25.2522 49.512 25.4882 49.584 25.7682 49.584C26.0242 49.584 26.2202 49.536 26.3562 49.44C26.5002 49.336 26.5722 49.204 26.5722 49.044C26.5722 48.852 26.4722 48.712 26.2722 48.624C26.0722 48.528 25.7482 48.424 25.3002 48.312C24.8202 48.2 24.4202 48.084 24.1002 47.964C23.7802 47.836 23.5042 47.64 23.2722 47.376C23.0402 47.104 22.9242 46.74 22.9242 46.284C22.9242 45.9 23.0282 45.552 23.2362 45.24C23.4522 44.92 23.7642 44.668 24.1722 44.484C24.5882 44.3 25.0802 44.208 25.6482 44.208C26.4882 44.208 27.1482 44.416 27.6282 44.832C28.1162 45.248 28.3962 45.8 28.4682 46.488H26.5722C26.5402 46.256 26.4362 46.072 26.2602 45.936C26.0922 45.8 25.8682 45.732 25.5882 45.732C25.3482 45.732 25.1642 45.78 25.0362 45.876C24.9082 45.964 24.8442 46.088 24.8442 46.248C24.8442 46.44 24.9442 46.584 25.1442 46.68C25.3522 46.776 25.6722 46.872 26.1042 46.968C26.6002 47.096 27.0042 47.224 27.3162 47.352C27.6282 47.472 27.9002 47.672 28.1322 47.952C28.3722 48.224 28.4962 48.592 28.5042 49.056C28.5042 49.448 28.3922 49.8 28.1682 50.112C27.9522 50.416 27.6362 50.656 27.2202 50.832C26.8122 51.008 26.3362 51.096 25.7922 51.096ZM38.6996 42.66V51H37.3316V45.288L34.7876 51H33.8396L31.2836 45.288V51H29.9156V42.66H31.3916L34.3196 49.2L37.2356 42.66H38.6996ZM40.0417 47.664C40.0417 47 40.1777 46.412 40.4497 45.9C40.7297 45.388 41.1057 44.992 41.5777 44.712C42.0577 44.424 42.5857 44.28 43.1617 44.28C43.6817 44.28 44.1337 44.384 44.5177 44.592C44.9097 44.792 45.2217 45.044 45.4537 45.348V44.388H46.8337V51H45.4537V50.016C45.2217 50.328 44.9057 50.588 44.5057 50.796C44.1057 51.004 43.6497 51.108 43.1377 51.108C42.5697 51.108 42.0497 50.964 41.5777 50.676C41.1057 50.38 40.7297 49.972 40.4497 49.452C40.1777 48.924 40.0417 48.328 40.0417 47.664ZM45.4537 47.688C45.4537 47.232 45.3577 46.836 45.1657 46.5C44.9817 46.164 44.7377 45.908 44.4337 45.732C44.1297 45.556 43.8017 45.468 43.4497 45.468C43.0977 45.468 42.7697 45.556 42.4657 45.732C42.1617 45.9 41.9137 46.152 41.7217 46.488C41.5377 46.816 41.4457 47.208 41.4457 47.664C41.4457 48.12 41.5377 48.52 41.7217 48.864C41.9137 49.208 42.1617 49.472 42.4657 49.656C42.7777 49.832 43.1057 49.92 43.4497 49.92C43.8017 49.92 44.1297 49.832 44.4337 49.656C44.7377 49.48 44.9817 49.224 45.1657 48.888C45.3577 48.544 45.4537 48.144 45.4537 47.688ZM51.9665 44.28C52.4865 44.28 52.9505 44.388 53.3585 44.604C53.7745 44.82 54.0985 45.14 54.3305 45.564C54.5625 45.988 54.6785 46.5 54.6785 47.1V51H53.3225V47.304C53.3225 46.712 53.1745 46.26 52.8785 45.948C52.5825 45.628 52.1785 45.468 51.6665 45.468C51.1545 45.468 50.7465 45.628 50.4425 45.948C50.1465 46.26 49.9985 46.712 49.9985 47.304V51H48.6305V44.388H49.9985V45.144C50.2225 44.872 50.5065 44.66 50.8505 44.508C51.2025 44.356 51.5745 44.28 51.9665 44.28ZM55.9674 47.664C55.9674 47 56.1034 46.412 56.3754 45.9C56.6554 45.388 57.0314 44.992 57.5034 44.712C57.9834 44.424 58.5114 44.28 59.0874 44.28C59.6074 44.28 60.0594 44.384 60.4434 44.592C60.8354 44.792 61.1474 45.044 61.3794 45.348V44.388H62.7594V51H61.3794V50.016C61.1474 50.328 60.8314 50.588 60.4314 50.796C60.0314 51.004 59.5754 51.108 59.0634 51.108C58.4954 51.108 57.9754 50.964 57.5034 50.676C57.0314 50.38 56.6554 49.972 56.3754 49.452C56.1034 48.924 55.9674 48.328 55.9674 47.664ZM61.3794 47.688C61.3794 47.232 61.2834 46.836 61.0914 46.5C60.9074 46.164 60.6634 45.908 60.3594 45.732C60.0554 45.556 59.7274 45.468 59.3754 45.468C59.0234 45.468 58.6954 45.556 58.3914 45.732C58.0874 45.9 57.8394 46.152 57.6474 46.488C57.4634 46.816 57.3714 47.208 57.3714 47.664C57.3714 48.12 57.4634 48.52 57.6474 48.864C57.8394 49.208 58.0874 49.472 58.3914 49.656C58.7034 49.832 59.0314 49.92 59.3754 49.92C59.7274 49.92 60.0554 49.832 60.3594 49.656C60.6634 49.48 60.9074 49.224 61.0914 48.888C61.2834 48.544 61.3794 48.144 61.3794 47.688ZM67.2203 44.28C67.7323 44.28 68.1843 44.384 68.5763 44.592C68.9763 44.792 69.2883 45.044 69.5123 45.348V44.388H70.8923V51.108C70.8923 51.716 70.7643 52.256 70.5083 52.728C70.2523 53.208 69.8803 53.584 69.3923 53.856C68.9123 54.128 68.3363 54.264 67.6643 54.264C66.7683 54.264 66.0243 54.052 65.4323 53.628C64.8403 53.212 64.5043 52.644 64.4243 51.924H65.7803C65.8843 52.268 66.1043 52.544 66.4403 52.752C66.7843 52.968 67.1923 53.076 67.6643 53.076C68.2163 53.076 68.6603 52.908 68.9963 52.572C69.3403 52.236 69.5123 51.748 69.5123 51.108V50.004C69.2803 50.316 68.9643 50.58 68.5643 50.796C68.1723 51.004 67.7243 51.108 67.2203 51.108C66.6443 51.108 66.1163 50.964 65.6363 50.676C65.1643 50.38 64.7883 49.972 64.5083 49.452C64.2363 48.924 64.1003 48.328 64.1003 47.664C64.1003 47 64.2363 46.412 64.5083 45.9C64.7883 45.388 65.1643 44.992 65.6363 44.712C66.1163 44.424 66.6443 44.28 67.2203 44.28ZM69.5123 47.688C69.5123 47.232 69.4163 46.836 69.2243 46.5C69.0403 46.164 68.7963 45.908 68.4923 45.732C68.1883 45.556 67.8603 45.468 67.5083 45.468C67.1563 45.468 66.8283 45.556 66.5243 45.732C66.2203 45.9 65.9723 46.152 65.7803 46.488C65.5963 46.816 65.5043 47.208 65.5043 47.664C65.5043 48.12 65.5963 48.52 65.7803 48.864C65.9723 49.208 66.2203 49.472 66.5243 49.656C66.8363 49.832 67.1643 49.92 67.5083 49.92C67.8603 49.92 68.1883 49.832 68.4923 49.656C68.7963 49.48 69.0403 49.224 69.2243 48.888C69.4163 48.544 69.5123 48.144 69.5123 47.688ZM78.7491 47.532C78.7491 47.78 78.7331 48.004 78.7011 48.204H73.6491C73.6891 48.732 73.8851 49.156 74.2371 49.476C74.5891 49.796 75.0211 49.956 75.5331 49.956C76.2691 49.956 76.7891 49.648 77.0931 49.032H78.5691C78.3691 49.64 78.0051 50.14 77.4771 50.532C76.9571 50.916 76.3091 51.108 75.5331 51.108C74.9011 51.108 74.3331 50.968 73.8291 50.688C73.3331 50.4 72.9411 50 72.6531 49.488C72.3731 48.968 72.2331 48.368 72.2331 47.688C72.2331 47.008 72.3691 46.412 72.6411 45.9C72.9211 45.38 73.3091 44.98 73.8051 44.7C74.3091 44.42 74.8851 44.28 75.5331 44.28C76.1571 44.28 76.7131 44.416 77.2011 44.688C77.6891 44.96 78.0691 45.344 78.3411 45.84C78.6131 46.328 78.7491 46.892 78.7491 47.532ZM77.3211 47.1C77.3131 46.596 77.1331 46.192 76.7811 45.888C76.4291 45.584 75.9931 45.432 75.4731 45.432C75.0011 45.432 74.5971 45.584 74.2611 45.888C73.9251 46.184 73.7251 46.588 73.6611 47.1H77.3211ZM81.4633 45.348C81.6633 45.012 81.9273 44.752 82.2553 44.568C82.5913 44.376 82.9873 44.28 83.4433 44.28V45.696H83.0953C82.5593 45.696 82.1513 45.832 81.8713 46.104C81.5993 46.376 81.4633 46.848 81.4633 47.52V51H80.0953V44.388H81.4633V45.348Z" fill="#4E3975"/>
<path fill-rule="evenodd" clip-rule="evenodd" d="M30 18C30 15.2386 32.2386 13 35 13H49C51.7614 13 54 15.2386 54 18V33C54 35.7614 51.7614 38 49 38H35C32.2386 38 30 35.7614 30 33V18ZM43.5604 26C44.5048 25.4541 45.144 24.4048 45.144 23.2C45.144 21.4327 43.7686 20 42.072 20C40.3754 20 39 21.4327 39 23.2C39 24.4048 39.6392 25.4541 40.5836 26H40.536L39 32H45.144L43.608 26H43.5604Z" fill="#4E3975"/>
<path fill-rule="evenodd" clip-rule="evenodd" d="M42 0C45.866 0 49 2.91015 49 6.5V13H47V7.8H46.9854C46.9951 7.65698 47 7.51247 47 7.36667C47 4.25547 44.7614 1.73334 42 1.73334C39.2385 1.73334 37 4.25547 37 7.36667C37 7.51247 37.0049 7.65698 37.0145 7.8H37V13H35V6.5C35 2.91015 38.134 0 42 0Z" fill="#4E3975"/>
</svg>
